# xmcd
#
# Track frame offsets:
#	150
#	18978
#	39075
#	58948
#	82388
#	102881
#	120404
#	137503
#	159373
#	181120
#	199750
#	219302
#	238462
#	257443
#	278433
#	299814
#	318282
#	334309
#
# Disc length: 4672 seconds
#
# Revision: 0
# Processed by: cddbd v1.5.2PL0 Copyright (c) Steve Scherf et al.
# Submitted via: dBpowerAMP V4.0
#
DISCID=02123e12
DTITLE=Radio Latina - Salsa Vol2
DYEAR=2008
DGENRE=Salsa
TTITLE0=Puerto Rican Power-Tu cariñito
TTITLE1=Yuri Buenaventura-Salsa
TTITLE2=Joe Arroyo-La noche
TTITLE3=Juan Formell y Los Van Van-Me mantengo
TTITLE4=Manolito Simonet y sus Trabuco-Locos por mi Habana
TTITLE5=Fruko y sus Tesos-Pachanga con la playa
TTITLE6=Eddie Palmieri-Nunca contigo
TTITLE7=Gilberto Santa Rosa-Que alguien me diga
TTITLE8=Victor Manuelle-Pensamiento y palabra
TTITLE9=Pedro Conga-Donde estas
TTITLE10=Maelo Ruíz-Te amo
TTITLE11=La Contrabanda-Mi bomba
TTITLE12=La Nueva Edicion-Su majestad el tambor
TTITLE13=Luisito Carrión-Para ser real
TTITLE14=Maikel Blanco-Anda y pegate
TTITLE15=Sonora Carruseles-Ojitos chinos
TTITLE16=Los Titanes-No la dejes sola
TTITLE17=Los Nemus-El mundo y el niño
EXTD=
EXTT0=
EXTT1=
EXTT2=
EXTT3=
EXTT4=
EXTT5=
EXTT6=
EXTT7=
EXTT8=
EXTT9=
EXTT10=
EXTT11=
EXTT12=
EXTT13=
EXTT14=
EXTT15=
EXTT16=
EXTT17=
PLAYORDER=
